{
	"asset":{
		"generator":"Khronos glTF Blender I/O v4.1.62",
		"version":"2.0"
	},
	"extensionsUsed":[
		"KHR_materials_specular",
		"KHR_materials_ior"
	],
	"scene":0,
	"scenes":[
		{
			"name":"Scene",
			"nodes":[
				1
			]
		}
	],
	"nodes":[
		{
			"name":"AttachPoint",
			"translation":[
				0,
				0.053000569343566895,
				-0.12307772040367126
			]
		},
		{
			"children":[
				0
			],
			"mesh":0,
			"name":"Pistol_Model",
			"scale":[
				4,
				4,
				4
			]
		}
	],
	"materials":[
		{
			"doubleSided":true,
			"extensions":{
				"KHR_materials_specular":{
					"specularFactor":0
				},
				"KHR_materials_ior":{
					"ior":1.4500000476837158
				}
			},
			"name":"Material",
			"pbrMetallicRoughness":{
				"baseColorTexture":{
					"index":0
				},
				"metallicFactor":0,
				"roughnessFactor":0.5
			}
		}
	],
	"meshes":[
		{
			"name":"Cube.039",
			"primitives":[
				{
					"attributes":{
						"POSITION":0,
						"NORMAL":1,
						"TEXCOORD_0":2
					},
					"indices":3,
					"material":0
				}
			]
		}
	],
	"textures":[
		{
			"sampler":0,
			"source":0
		}
	],
	"images":[
		{
			"mimeType":"image/png",
			"name":"Pistol_Basecolor",
			"uri":"Pistol_Basecolor.png"
		}
	],
	"accessors":[
		{
			"bufferView":0,
			"componentType":5126,
			"count":1293,
			"max":[
				0.020217297598719597,
				0.07093825191259384,
				0.10927418619394302
			],
			"min":[
				-0.020217256620526314,
				-0.08845914155244827,
				-0.12658029794692993
			],
			"type":"VEC3"
		},
		{
			"bufferView":1,
			"componentType":5126,
			"count":1293,
			"type":"VEC3"
		},
		{
			"bufferView":2,
			"componentType":5126,
			"count":1293,
			"type":"VEC2"
		},
		{
			"bufferView":3,
			"componentType":5123,
			"count":3930,
			"type":"SCALAR"
		}
	],
	"bufferViews":[
		{
			"buffer":0,
			"byteLength":15516,
			"byteOffset":0,
			"target":34962
		},
		{
			"buffer":0,
			"byteLength":15516,
			"byteOffset":15516,
			"target":34962
		},
		{
			"buffer":0,
			"byteLength":10344,
			"byteOffset":31032,
			"target":34962
		},
		{
			"buffer":0,
			"byteLength":7860,
			"byteOffset":41376,
			"target":34963
		}
	],
	"samplers":[
		{
			"magFilter":9729,
			"minFilter":9987
		}
	],
	"buffers":[
		{
			"byteLength":49236,
			"uri":"Pistol.bin"
		}
	]
}
